<?xml version="1.0" encoding="UTF-8"?>
<svg width="19px" height="15px" viewBox="0 0 19 15" version="1.1" xmlns="http://www.w3.org/2000/svg" xmlns:xlink="http://www.w3.org/1999/xlink">
    <!-- Generator: Sketch 49.3 (51167) - http://www.bohemiancoding.com/sketch -->
    <title>Fill 1</title>
    <desc>Created with Sketch.</desc>
    <defs></defs>
    <g id="Page-1" stroke="none" stroke-width="1" fill="none" fill-rule="evenodd">
        <g id="Desktop-Copy-3" transform="translate(-11.000000, -615.000000)" fill="#54698D" stroke="#54698D" stroke-width="0.5">
            <g id="Group-21" transform="translate(0.000000, 559.000000)">
                <g id="Group-13" transform="translate(5.000000, 9.000000)">
                    <g id="Group-12-Copy" transform="translate(0.000000, 40.000000)">
                        <path d="M19.1810118,10.990926 L17.280655,10.990926 C16.905787,10.990926 16.6019561,11.3072109 16.6019561,11.6974448 C16.6019561,12.0876786 16.905787,12.4039635 17.280655,12.4039635 L19.1810118,12.4039635 C21.0838572,12.4039635 22.6299332,14.0028155 22.642376,15.9836585 C22.6548189,17.960498 21.1257103,19.5739513 19.2262584,19.5869042 L19.1810118,19.5869042 L11.4890914,19.5869042 C9.58375741,19.4262889 8.16414562,17.6877818 8.31866273,15.7043481 C8.4557599,13.9441744 9.79800002,12.5466803 11.4890914,12.4039635 L12.914359,12.4039635 L11.2628584,14.1231591 C11.0379828,14.4352049 11.0986133,14.8781922 11.3985982,15.1122854 C11.6399887,15.3006904 11.9716463,15.3006904 12.2130368,15.1122854 L15.0409488,12.2155585 C15.299533,11.9409582 15.299533,11.5012681 15.0409488,11.2264323 L12.2356601,8.28260414 C12.0107846,7.97055836 11.5852404,7.90720718 11.2854817,8.14130039 C10.9854968,8.3753936 10.9248664,8.81814535 11.1497419,9.13042664 C11.1882015,9.18412207 11.2341268,9.23145882 11.2854817,9.27173039 L12.9369823,10.990926 L11.4890914,10.990926 C8.8340214,11.1807441 6.82937119,13.5751361 7.01148872,16.338802 C7.17641254,18.8387008 9.08785478,20.8284931 11.4890914,20.9999417 L19.1810118,20.9999417 C21.8297473,21.01313 23.987331,18.788538 24,16.0309953 C24,16.0074447 24,15.983894 23.9997738,15.9601079 C23.9748881,13.2082174 21.8247701,10.990926 19.1810118,10.990926" id="Fill-1" transform="translate(15.500000, 14.500000) scale(-1, 1) translate(-15.500000, -14.500000) "></path>
                    </g>
                </g>
            </g>
        </g>
    </g>
</svg>