<?xml version="1.0" encoding="UTF-8"?>
<svg width="19px" height="15px" viewBox="0 0 19 15" version="1.1" xmlns="http://www.w3.org/2000/svg" xmlns:xlink="http://www.w3.org/1999/xlink">
    <!-- Generator: Sketch 49.3 (51167) - http://www.bohemiancoding.com/sketch -->
    <title>Fill 1</title>
    <desc>Created with Sketch.</desc>
    <defs></defs>
    <g id="Page-1" stroke="none" stroke-width="1" fill="none" fill-rule="evenodd">
        <path d="M13.1810118,3.99092602 L11.280655,3.99092602 C10.905787,3.99092602 10.6019561,4.30721091 10.6019561,4.69744477 C10.6019561,5.08767863 10.905787,5.40396352 11.280655,5.40396352 L13.1810118,5.40396352 C15.0838572,5.40396352 16.6299332,7.00281546 16.642376,8.98365853 C16.6548189,10.960498 15.1257103,12.5739513 13.2262584,12.5869042 L13.1810118,12.5869042 L5.48909136,12.5869042 C3.58375741,12.4262889 2.16414562,10.6877818 2.31866273,8.70434812 C2.4557599,6.9441744 3.79800002,5.54668031 5.48909136,5.40396352 L6.91435898,5.40396352 L5.26285841,7.12315915 C5.03798285,7.43520493 5.09861328,7.87819219 5.39859818,8.1122854 C5.63998874,8.3006904 5.97164625,8.3006904 6.21303682,8.1122854 L9.04094875,5.21555852 C9.29953302,4.94095823 9.29953302,4.50126806 9.04094875,4.22643227 L6.23566011,1.28260414 C6.01078455,0.970558358 5.58524037,0.907207176 5.2854817,1.14130039 C4.9854968,1.3753936 4.92486637,1.81814535 5.14974193,2.13042664 C5.18820153,2.18412207 5.23412682,2.23145882 5.2854817,2.27173039 L6.93698227,3.99092602 L5.48909136,3.99092602 C2.8340214,4.18074406 0.829371189,6.57513611 1.01148872,9.33880195 C1.17641254,11.8387008 3.08785478,13.8284931 5.48909136,13.9999417 L13.1810118,13.9999417 C15.8297473,14.01313 17.987331,11.788538 18,9.03099528 C18,9.00744466 18,8.98389403 17.9997738,8.9601079 C17.9748881,6.20821737 15.8247701,3.99092602 13.1810118,3.99092602" id="Fill-1" stroke="#FFFFFF" stroke-width="0.5" fill="#FFFFFF" transform="translate(9.500000, 7.500000) scale(-1, 1) translate(-9.500000, -7.500000) "></path>
    </g>
</svg>